# Blender v2.79 (sub 0) OBJ File: 'love_heart.fbx'
# www.blender.org
mtllib love_heart.mtl
o Vert
v 1.058269 0.933384 0.353372
v 0.814283 0.597721 0.303696
v 0.706873 0.707681 0.444257
v 0.807349 0.962209 0.493273
v 1.208458 1.353938 0.392859
v 0.894272 1.308376 0.536219
v 0.508934 0.368623 0.253805
v 0.185939 0.198234 0.192817
v 0.210508 0.519945 0.423988
v 0.482882 0.615669 0.438448
v 1.208665 1.771664 0.421298
v 0.914041 1.655657 0.551964
v 0.000000 0.482317 0.416247
v 0.000000 0.142938 0.177389
v 0.691848 2.192309 0.430249
v 1.037941 2.084829 0.433516
v 0.878589 1.914431 0.540362
v 0.610587 1.916932 0.558211
v 1.350587 1.834798 0.233702
v 1.123834 2.195457 0.243508
v 1.157062 2.249624 0.000000
v 1.404307 1.868883 0.000000
v 0.283653 1.874417 0.546547
v 0.314980 2.135847 0.394702
v 0.078749 2.041134 0.328350
v 0.000000 1.857024 0.508595
v 0.579402 1.586439 0.616647
v 0.274925 1.539137 0.637094
v 0.875229 0.526700 0.163662
v 1.176600 0.899584 0.192661
v 1.214458 0.891862 0.000000
v 0.877433 0.509392 0.000000
v 0.711721 2.333699 0.239331
v 0.710404 2.392000 0.000000
v 0.054242 2.110264 0.168714
v 0.000000 2.079815 0.137142
v 0.000000 2.046677 0.000000
v 0.027994 2.089308 0.000000
v 0.523190 0.254162 0.133478
v 0.523142 0.232740 0.000000
v 1.358259 1.366435 0.215447
v 1.414252 1.380830 0.000000
v 0.000832 -0.010263 0.086167
v 0.141331 0.042050 0.092642
v 0.025781 -0.041260 -0.000000
v 0.000000 -0.053615 -0.000000
v 0.000000 1.520447 0.632754
v 0.000000 0.861286 0.577568
v 0.240507 0.883151 0.575973
v 0.000000 1.193595 0.653276
v 0.261407 1.212583 0.649402
v 0.553438 1.257126 0.618098
v 0.512393 0.931725 0.556262
v 0.283273 2.251584 0.214753
v 0.243391 2.276106 0.000000
v -1.058269 0.933384 0.361033
v -0.807349 0.962209 0.493273
v -0.706873 0.707681 0.444257
v -0.814283 0.597721 0.327510
v -1.208458 1.353938 0.393730
v -0.894272 1.308376 0.536219
v -0.508934 0.368623 0.273411
v -0.482882 0.615669 0.438448
v -0.210508 0.519945 0.423988
v -0.185939 0.198234 0.211972
v -1.208665 1.771664 0.421298
v -0.914041 1.655657 0.551964
v -0.691848 2.192309 0.430249
v -0.610587 1.916932 0.558211
v -0.878589 1.914431 0.540362
v -1.037941 2.084829 0.433516
v -1.350588 1.834802 0.233696
v -1.404307 1.868883 0.000000
v -1.157062 2.249624 0.000000
v -1.123834 2.195457 0.243508
v -0.314980 2.135847 0.394702
v -0.283653 1.874417 0.546547
v -0.078749 2.041134 0.328350
v -0.274925 1.539137 0.637094
v -0.579402 1.586439 0.616647
v -0.875407 0.526642 0.181187
v -0.877433 0.509392 0.000000
v -1.214458 0.891862 0.000000
v -1.176767 0.899676 0.196871
v -0.710404 2.392000 0.000000
v -0.711721 2.333699 0.239331
v -0.054242 2.110264 0.168714
v -0.027994 2.089308 0.000000
v -0.523402 0.253870 0.145642
v -0.523142 0.232740 0.000000
v -1.358296 1.366477 0.215497
v -1.414252 1.380830 0.000000
v -0.025781 -0.041260 -0.000000
v -0.140589 0.041562 0.106995
v -0.240507 0.883151 0.575973
v -0.261407 1.212583 0.649402
v -0.553438 1.257126 0.618098
v -0.512393 0.931725 0.556262
v -0.243391 2.276106 0.000000
v -0.283273 2.251584 0.214753
v 0.000000 2.047043 0.254258
v 1.058269 0.933384 -0.353372
v 0.807349 0.962209 -0.493273
v 0.706873 0.707681 -0.444257
v 0.814283 0.597721 -0.303696
v 1.208458 1.353938 -0.392859
v 0.894272 1.308376 -0.536219
v 0.508934 0.368623 -0.253805
v 0.482882 0.615669 -0.438448
v 0.210508 0.519945 -0.423988
v 0.185939 0.198234 -0.192817
v 1.208665 1.771664 -0.421298
v 0.914041 1.655657 -0.551964
v 0.000000 0.482317 -0.416247
v 0.000000 0.142938 -0.177389
v 0.691848 2.192309 -0.430249
v 0.610587 1.916932 -0.558211
v 0.878589 1.914431 -0.540362
v 1.037941 2.084829 -0.433516
v 1.350587 1.834798 -0.233702
v 1.123834 2.195457 -0.243508
v 0.314980 2.135847 -0.394702
v 0.283653 1.874417 -0.546547
v 0.078749 2.041134 -0.328350
v 0.000000 1.857024 -0.508595
v 0.274925 1.539137 -0.637094
v 0.579402 1.586439 -0.616647
v 0.875229 0.526700 -0.163662
v 1.176600 0.899584 -0.192661
v 0.711721 2.333699 -0.239331
v 0.054242 2.110264 -0.168714
v 0.000000 2.079815 -0.137142
v 0.523190 0.254162 -0.133478
v 1.358259 1.366435 -0.215447
v 0.000832 -0.010263 -0.086167
v 0.141331 0.042050 -0.092642
v 0.000000 1.520447 -0.632754
v 0.240507 0.883151 -0.575973
v 0.000000 0.861286 -0.577568
v 0.261407 1.212583 -0.649402
v 0.000000 1.193595 -0.653276
v 0.553438 1.257126 -0.618098
v 0.512393 0.931725 -0.556262
v 0.283273 2.251584 -0.214753
v -1.058269 0.933384 -0.361033
v -0.814283 0.597721 -0.327510
v -0.706873 0.707681 -0.444257
v -0.807349 0.962209 -0.493273
v -1.208458 1.353938 -0.393730
v -0.894272 1.308376 -0.536219
v -0.508934 0.368623 -0.273411
v -0.185939 0.198234 -0.211972
v -0.210508 0.519945 -0.423988
v -0.482882 0.615669 -0.438448
v -1.208665 1.771664 -0.421298
v -0.914041 1.655657 -0.551964
v -0.691848 2.192309 -0.430249
v -1.037941 2.084829 -0.433516
v -0.878589 1.914431 -0.540362
v -0.610587 1.916932 -0.558211
v -1.350588 1.834802 -0.233696
v -1.123834 2.195457 -0.243508
v -0.283653 1.874417 -0.546547
v -0.314980 2.135847 -0.394702
v -0.078749 2.041134 -0.328350
v -0.579402 1.586439 -0.616647
v -0.274925 1.539137 -0.637094
v -0.875407 0.526642 -0.181187
v -1.176767 0.899676 -0.196871
v -0.711721 2.333699 -0.239331
v -0.054242 2.110264 -0.168714
v -0.523402 0.253870 -0.145642
v -1.358296 1.366477 -0.215497
v -0.140589 0.041562 -0.106995
v -0.240507 0.883151 -0.575973
v -0.261407 1.212583 -0.649402
v -0.553438 1.257126 -0.618098
v -0.512393 0.931725 -0.556262
v -0.283273 2.251584 -0.214753
v 0.000000 2.047043 -0.254258
vt 0.525000 0.246800
vt 0.477200 0.181100
vt 0.456100 0.202600
vt 0.475800 0.252500
vt 0.554400 0.329200
vt 0.492800 0.320200
vt 0.417400 0.136200
vt 0.354200 0.102900
vt 0.359000 0.165900
vt 0.412300 0.184600
vt 0.554400 0.411000
vt 0.496700 0.388200
vt 0.317700 0.158500
vt 0.317700 0.092100
vt 0.453200 0.493300
vt 0.521000 0.472300
vt 0.489800 0.438900
vt 0.437300 0.439400
vt 0.582200 0.423300
vt 0.537800 0.493900
vt 0.544300 0.504500
vt 0.592700 0.430000
vt 0.373300 0.431100
vt 0.379400 0.482300
vt 0.336800 0.464100
vt 0.317700 0.427900
vt 0.431200 0.374700
vt 0.371600 0.365400
vt 0.486700 0.170600
vt 0.548100 0.240200
vt 0.555500 0.238700
vt 0.489500 0.163800
vt 0.457100 0.521000
vt 0.456800 0.532400
vt 0.334400 0.479800
vt 0.317600 0.476400
vt 0.317700 0.479400
vt 0.323200 0.481000
vt 0.418700 0.119000
vt 0.420200 0.109600
vt 0.583700 0.331600
vt 0.594700 0.334400
vt 0.318000 0.070100
vt 0.350000 0.080400
vt 0.322800 0.056000
vt 0.317700 0.053600
vt 0.317700 0.361800
vt 0.317700 0.232700
vt 0.364800 0.237000
vt 0.317700 0.297800
vt 0.368900 0.301500
vt 0.426100 0.310200
vt 0.418100 0.246500
vt 0.373200 0.504900
vt 0.365400 0.509700
vt 0.110500 0.246800
vt 0.159700 0.252500
vt 0.179300 0.202600
vt 0.158300 0.181100
vt 0.081100 0.329200
vt 0.142700 0.320200
vt 0.218100 0.136200
vt 0.223200 0.184600
vt 0.276500 0.165900
vt 0.281300 0.102900
vt 0.081100 0.411000
vt 0.138800 0.388200
vt 0.182300 0.493300
vt 0.198200 0.439400
vt 0.145700 0.438900
vt 0.114500 0.472300
vt 0.053300 0.423300
vt 0.042800 0.430000
vt 0.091200 0.504500
vt 0.097700 0.493900
vt 0.256100 0.482300
vt 0.262200 0.431100
vt 0.298400 0.464200
vt 0.263900 0.365400
vt 0.204300 0.374700
vt 0.149700 0.172200
vt 0.145900 0.163800
vt 0.080000 0.238700
vt 0.087300 0.240200
vt 0.178700 0.532400
vt 0.178400 0.521000
vt 0.300500 0.480000
vt 0.312300 0.481000
vt 0.215800 0.116400
vt 0.215300 0.109600
vt 0.051800 0.331600
vt 0.040800 0.334400
vt 0.312700 0.056000
vt 0.287200 0.077100
vt 0.270700 0.237000
vt 0.266600 0.301500
vt 0.209400 0.310200
vt 0.217400 0.246500
vt 0.270100 0.509700
vt 0.262300 0.504900
vt 0.317600 0.467900
vt 0.889100 0.662700
vt 0.840000 0.668300
vt 0.820300 0.618500
vt 0.841400 0.597000
vt 0.918600 0.745000
vt 0.857000 0.736100
vt 0.781600 0.552100
vt 0.776500 0.600500
vt 0.723200 0.581700
vt 0.718300 0.518800
vt 0.918600 0.826800
vt 0.860900 0.804100
vt 0.681900 0.574400
vt 0.681900 0.507900
vt 0.817400 0.909200
vt 0.801500 0.855300
vt 0.854000 0.854800
vt 0.885200 0.888100
vt 0.946400 0.839200
vt 0.956900 0.845900
vt 0.908500 0.920400
vt 0.902000 0.909800
vt 0.743600 0.898100
vt 0.737500 0.846900
vt 0.700900 0.879900
vt 0.681900 0.843700
vt 0.735800 0.781300
vt 0.795400 0.790600
vt 0.850900 0.586400
vt 0.853700 0.579700
vt 0.919700 0.654600
vt 0.912300 0.656100
vt 0.821000 0.948300
vt 0.821300 0.936900
vt 0.698600 0.895700
vt 0.687400 0.896900
vt 0.681900 0.895300
vt 0.681800 0.892300
vt 0.782900 0.534900
vt 0.784400 0.525500
vt 0.947900 0.747500
vt 0.958800 0.750300
vt 0.682200 0.486000
vt 0.681900 0.469400
vt 0.687000 0.471900
vt 0.714200 0.496300
vt 0.681900 0.777600
vt 0.729000 0.652900
vt 0.681900 0.648600
vt 0.733100 0.717400
vt 0.681900 0.713600
vt 0.790300 0.726100
vt 0.782300 0.662400
vt 0.729600 0.925600
vt 0.737400 0.920800
vt 0.474700 0.662700
vt 0.522500 0.597000
vt 0.543500 0.618500
vt 0.523900 0.668300
vt 0.445300 0.745000
vt 0.506800 0.736100
vt 0.582300 0.552100
vt 0.645500 0.518800
vt 0.640700 0.581700
vt 0.587400 0.600500
vt 0.445300 0.826800
vt 0.503000 0.804100
vt 0.546500 0.909200
vt 0.478700 0.888100
vt 0.509900 0.854800
vt 0.562400 0.855300
vt 0.417500 0.839200
vt 0.461900 0.909800
vt 0.455400 0.920400
vt 0.407000 0.845900
vt 0.626400 0.846900
vt 0.620300 0.898100
vt 0.662600 0.880000
vt 0.568500 0.790600
vt 0.628100 0.781300
vt 0.513900 0.588000
vt 0.451500 0.656100
vt 0.444200 0.654600
vt 0.510100 0.579700
vt 0.542600 0.936900
vt 0.542800 0.948300
vt 0.664700 0.895900
vt 0.676500 0.896900
vt 0.580000 0.532300
vt 0.579500 0.525500
vt 0.416000 0.747500
vt 0.405000 0.750300
vt 0.651400 0.493000
vt 0.676900 0.471900
vt 0.634900 0.652900
vt 0.630800 0.717400
vt 0.573600 0.726100
vt 0.581600 0.662400
vt 0.626500 0.920800
vt 0.634300 0.925600
vt 0.681800 0.883800
vn -0.5842 0.3791 -0.7176
vn -0.4646 0.5635 -0.6831
vn -0.3045 0.4312 -0.8493
vn -0.3428 0.2852 -0.8950
vn -0.6265 0.1629 -0.7622
vn -0.3390 0.1320 -0.9315
vn -0.2863 0.6268 -0.7246
vn -0.1593 0.5927 -0.7895
vn -0.1003 0.4910 -0.8653
vn -0.1824 0.4764 -0.8601
vn -0.6201 -0.1229 -0.7748
vn -0.2970 -0.0340 -0.9543
vn -0.0124 0.4942 -0.8692
vn -0.0347 0.5522 -0.8329
vn -0.0185 -0.6637 -0.7477
vn -0.4082 -0.4886 -0.7711
vn -0.2121 -0.2419 -0.9468
vn -0.0100 -0.3205 -0.9472
vn -0.8678 -0.2407 -0.4347
vn -0.5606 -0.7069 -0.4312
vn -0.6079 -0.7940 0.0000
vn -0.9546 -0.2977 0.0000
vn 0.1318 -0.4114 -0.9019
vn 0.2642 -0.6767 -0.6872
vn 0.2821 -0.7525 -0.5951
vn 0.0000 -0.5015 -0.8651
vn -0.1024 -0.0812 -0.9914
vn 0.0054 -0.1463 -0.9892
vn -0.6318 0.6865 -0.3598
vn -0.7882 0.4829 -0.3813
vn -0.8583 0.5131 0.0000
vn -0.6867 0.7269 0.0000
vn -0.0452 -0.9137 -0.4037
vn -0.0423 -0.9991 0.0000
vn 0.5383 -0.8051 -0.2491
vn 0.0000 -0.9952 -0.0973
vn 0.0000 -1.0000 0.0000
vn 0.6273 -0.7787 0.0000
vn -0.4563 0.7787 -0.4304
vn -0.5427 0.8399 0.0000
vn -0.8887 0.1790 -0.4221
vn -0.9853 0.1711 0.0000
vn -0.0268 0.7849 -0.6190
vn -0.3290 0.7782 -0.5348
vn -0.3742 0.9273 0.0000
vn -0.0177 0.9998 0.0000
vn 0.0000 -0.1740 -0.9847
vn 0.0000 0.3112 -0.9503
vn -0.0742 0.3022 -0.9503
vn 0.0000 0.0921 -0.9957
vn -0.0588 0.0941 -0.9938
vn -0.1673 0.1041 -0.9804
vn -0.1611 0.2712 -0.9489
vn 0.3715 -0.8596 -0.3507
vn 0.4354 -0.9002 0.0000
vn 0.5838 0.3667 -0.7243
vn 0.3307 0.2723 -0.9036
vn 0.2815 0.4050 -0.8698
vn 0.4567 0.5478 -0.7009
vn 0.6267 0.1592 -0.7628
vn 0.3355 0.1287 -0.9332
vn 0.2787 0.6186 -0.7346
vn 0.1665 0.4539 -0.8753
vn 0.0845 0.4758 -0.8755
vn 0.1335 0.5915 -0.7952
vn 0.6201 -0.1234 -0.7747
vn 0.2966 -0.0343 -0.9544
vn 0.0185 -0.6637 -0.7477
vn 0.0100 -0.3205 -0.9472
vn 0.2121 -0.2419 -0.9468
vn 0.4082 -0.4886 -0.7711
vn 0.8679 -0.2409 -0.4344
vn 0.9546 -0.2977 0.0000
vn 0.6079 -0.7940 0.0000
vn 0.5606 -0.7069 -0.4312
vn -0.2642 -0.6767 -0.6872
vn -0.1318 -0.4114 -0.9019
vn -0.2821 -0.7525 -0.5951
vn -0.0054 -0.1463 -0.9892
vn 0.1024 -0.0812 -0.9914
vn 0.6368 0.6868 -0.3503
vn 0.6877 0.7260 0.0000
vn 0.8589 0.5121 0.0000
vn 0.7943 0.4787 -0.3739
vn 0.0423 -0.9991 0.0000
vn 0.0452 -0.9137 -0.4037
vn -0.5383 -0.8051 -0.2491
vn -0.6273 -0.7787 0.0000
vn 0.4618 0.7863 -0.4104
vn 0.5433 0.8395 0.0000
vn 0.8901 0.1773 -0.4199
vn 0.9853 0.1706 0.0000
vn 0.3489 0.9371 0.0000
vn 0.2951 0.7887 -0.5393
vn 0.0742 0.3022 -0.9503
vn 0.0588 0.0941 -0.9938
vn 0.1673 0.1041 -0.9804
vn 0.1611 0.2712 -0.9489
vn -0.4354 -0.9002 0.0000
vn -0.3715 -0.8596 -0.3507
vn 0.0000 -0.8951 -0.4457
vn -0.5842 0.3791 0.7176
vn -0.3428 0.2852 0.8950
vn -0.3045 0.4312 0.8493
vn -0.4646 0.5635 0.6831
vn -0.6265 0.1629 0.7622
vn -0.3390 0.1320 0.9315
vn -0.2863 0.6268 0.7246
vn -0.1824 0.4764 0.8601
vn -0.1003 0.4910 0.8653
vn -0.1593 0.5927 0.7895
vn -0.6201 -0.1229 0.7748
vn -0.2970 -0.0340 0.9543
vn -0.0124 0.4942 0.8692
vn -0.0347 0.5522 0.8329
vn -0.0185 -0.6637 0.7477
vn -0.0100 -0.3205 0.9472
vn -0.2121 -0.2419 0.9468
vn -0.4082 -0.4886 0.7711
vn -0.8678 -0.2407 0.4347
vn -0.5606 -0.7069 0.4312
vn 0.2642 -0.6767 0.6872
vn 0.1318 -0.4114 0.9019
vn 0.2821 -0.7525 0.5951
vn 0.0000 -0.5015 0.8651
vn 0.0054 -0.1463 0.9892
vn -0.1024 -0.0812 0.9914
vn -0.6318 0.6865 0.3598
vn -0.7882 0.4829 0.3813
vn -0.0452 -0.9137 0.4037
vn 0.5383 -0.8051 0.2491
vn 0.0000 -0.9952 0.0973
vn -0.4563 0.7787 0.4304
vn -0.8887 0.1790 0.4221
vn -0.0268 0.7849 0.6190
vn -0.3290 0.7782 0.5348
vn 0.0000 -0.1740 0.9847
vn -0.0742 0.3022 0.9503
vn 0.0000 0.3112 0.9503
vn -0.0588 0.0941 0.9938
vn 0.0000 0.0921 0.9957
vn -0.1673 0.1041 0.9804
vn -0.1611 0.2712 0.9489
vn 0.3715 -0.8596 0.3507
vn 0.5838 0.3667 0.7243
vn 0.4567 0.5478 0.7009
vn 0.2815 0.4050 0.8698
vn 0.3307 0.2723 0.9036
vn 0.6267 0.1592 0.7628
vn 0.3355 0.1287 0.9332
vn 0.2787 0.6186 0.7346
vn 0.1335 0.5915 0.7952
vn 0.0845 0.4758 0.8755
vn 0.1665 0.4539 0.8753
vn 0.6201 -0.1234 0.7747
vn 0.2966 -0.0343 0.9544
vn 0.0185 -0.6637 0.7477
vn 0.4082 -0.4886 0.7711
vn 0.2121 -0.2419 0.9468
vn 0.0100 -0.3205 0.9472
vn 0.8679 -0.2409 0.4344
vn 0.5606 -0.7069 0.4312
vn -0.1318 -0.4114 0.9019
vn -0.2642 -0.6767 0.6872
vn -0.2821 -0.7525 0.5951
vn 0.1024 -0.0812 0.9914
vn -0.0054 -0.1463 0.9892
vn 0.6368 0.6868 0.3503
vn 0.7943 0.4787 0.3739
vn 0.0452 -0.9137 0.4037
vn -0.5383 -0.8051 0.2491
vn 0.4618 0.7863 0.4104
vn 0.8901 0.1773 0.4199
vn 0.2951 0.7887 0.5393
vn 0.0742 0.3022 0.9503
vn 0.0588 0.0941 0.9938
vn 0.1673 0.1041 0.9804
vn 0.1611 0.2712 0.9489
vn -0.3715 -0.8596 0.3507
vn 0.0000 -0.8951 0.4457
usemtl Material.001
s 1
f 1/1/1 2/2/2 3/3/3 4/4/4
f 5/5/5 1/1/1 4/4/4 6/6/6
f 7/7/7 8/8/8 9/9/9 10/10/10
f 11/11/11 5/5/5 6/6/6 12/12/12
f 13/13/13 9/9/9 8/8/8 14/14/14
f 15/15/15 16/16/16 17/17/17 18/18/18
f 19/19/19 20/20/20 21/21/21 22/22/22
f 18/18/18 23/23/23 24/24/24 15/15/15
f 25/25/25 24/24/24 23/23/23 26/26/26
f 23/23/23 18/18/18 27/27/27 28/28/28
f 16/16/16 11/11/11 12/12/12 17/17/17
f 29/29/29 30/30/30 31/31/31 32/32/32
f 20/20/20 33/33/33 34/34/34 21/21/21
f 35/35/35 36/36/36 37/37/37 38/38/38
f 39/39/39 29/29/29 32/32/32 40/40/40
f 41/41/41 19/19/19 22/22/22 42/42/42
f 43/43/43 44/44/44 45/45/45 46/46/46
f 30/30/30 41/41/41 42/42/42 31/31/31
f 47/47/47 26/26/26 23/23/23 28/28/28
f 13/13/13 48/48/48 49/49/49 9/9/9
f 48/48/48 50/50/50 51/51/51 49/49/49
f 50/50/50 47/47/47 28/28/28 51/51/51
f 27/27/27 52/52/52 51/51/51 28/28/28
f 52/52/52 53/53/53 49/49/49 51/51/51
f 10/10/10 53/53/53 4/4/4 3/3/3
f 9/9/9 49/49/49 53/53/53 10/10/10
f 6/6/6 4/4/4 53/53/53 52/52/52
f 12/12/12 6/6/6 52/52/52 27/27/27
f 44/44/44 39/39/39 40/40/40 45/45/45
f 2/2/2 7/7/7 10/10/10 3/3/3
f 18/18/18 17/17/17 12/12/12 27/27/27
f 33/33/33 54/54/54 55/55/55 34/34/34
f 54/54/54 35/35/35 38/38/38 55/55/55
f 56/56/56 57/57/57 58/58/58 59/59/59
f 60/60/60 61/61/61 57/57/57 56/56/56
f 62/62/62 63/63/63 64/64/64 65/65/65
f 66/66/66 67/67/67 61/61/61 60/60/60
f 13/13/13 14/14/14 65/65/65 64/64/64
f 68/68/68 69/69/69 70/70/70 71/71/71
f 72/72/72 73/73/73 74/74/74 75/75/75
f 69/69/69 68/68/68 76/76/76 77/77/77
f 78/78/78 26/26/26 77/77/77 76/76/76
f 77/77/77 79/79/79 80/80/80 69/69/69
f 71/71/71 70/70/70 67/67/67 66/66/66
f 81/81/81 82/82/82 83/83/83 84/84/84
f 75/75/75 74/74/74 85/85/85 86/86/86
f 87/87/87 88/88/88 37/37/37 36/36/36
f 89/89/89 90/90/90 82/82/82 81/81/81
f 91/91/91 92/92/92 73/73/73 72/72/72
f 43/43/43 46/46/46 93/93/93 94/94/94
f 84/84/84 83/83/83 92/92/92 91/91/91
f 47/47/47 79/79/79 77/77/77 26/26/26
f 13/13/13 64/64/64 95/95/95 48/48/48
f 48/48/48 95/95/95 96/96/96 50/50/50
f 50/50/50 96/96/96 79/79/79 47/47/47
f 80/80/80 79/79/79 96/96/96 97/97/97
f 97/97/97 96/96/96 95/95/95 98/98/98
f 63/63/63 58/58/58 57/57/57 98/98/98
f 64/64/64 63/63/63 98/98/98 95/95/95
f 61/61/61 97/97/97 98/98/98 57/57/57
f 67/67/67 80/80/80 97/97/97 61/61/61
f 94/94/94 93/93/93 90/90/90 89/89/89
f 59/59/59 58/58/58 63/63/63 62/62/62
f 69/69/69 80/80/80 67/67/67 70/70/70
f 86/86/86 85/85/85 99/99/99 100/100/100
f 100/100/100 99/99/99 88/88/88 87/87/87
f 26/26/26 78/78/78 101/101/101 25/25/25
f 76/76/76 100/100/100 87/87/87 78/78/78
f 68/68/68 86/86/86 100/100/100 76/76/76
f 65/65/65 94/94/94 89/89/89 62/62/62
f 56/56/56 84/84/84 91/91/91 60/60/60
f 14/14/14 43/43/43 94/94/94 65/65/65
f 60/60/60 91/91/91 72/72/72 66/66/66
f 62/62/62 89/89/89 81/81/81 59/59/59
f 78/78/78 87/87/87 36/36/36 101/101/101
f 71/71/71 75/75/75 86/86/86 68/68/68
f 59/59/59 81/81/81 84/84/84 56/56/56
f 66/66/66 72/72/72 75/75/75 71/71/71
f 24/24/24 25/25/25 35/35/35 54/54/54
f 15/15/15 24/24/24 54/54/54 33/33/33
f 8/8/8 7/7/7 39/39/39 44/44/44
f 1/1/1 5/5/5 41/41/41 30/30/30
f 14/14/14 8/8/8 44/44/44 43/43/43
f 5/5/5 11/11/11 19/19/19 41/41/41
f 7/7/7 2/2/2 29/29/29 39/39/39
f 25/25/25 101/101/101 36/36/36 35/35/35
f 16/16/16 15/15/15 33/33/33 20/20/20
f 2/2/2 1/1/1 30/30/30 29/29/29
f 11/11/11 16/16/16 20/20/20 19/19/19
f 102/102/102 103/103/103 104/104/104 105/105/105
f 106/106/106 107/107/107 103/103/103 102/102/102
f 108/108/108 109/109/109 110/110/110 111/111/111
f 112/112/112 113/113/113 107/107/107 106/106/106
f 114/114/114 115/115/115 111/111/111 110/110/110
f 116/116/116 117/117/117 118/118/118 119/119/119
f 120/120/120 22/121/22 21/122/21 121/123/121
f 117/117/117 116/116/116 122/124/122 123/125/123
f 124/126/124 125/127/125 123/125/123 122/124/122
f 123/125/123 126/128/126 127/129/127 117/117/117
f 119/119/119 118/118/118 113/113/113 112/112/112
f 128/130/128 32/131/32 31/132/31 129/133/129
f 121/123/121 21/122/21 34/134/34 130/135/130
f 131/136/131 38/137/38 37/138/37 132/139/132
f 133/140/133 40/141/40 32/131/32 128/130/128
f 134/142/134 42/143/42 22/121/22 120/120/120
f 135/144/135 46/145/46 45/146/45 136/147/136
f 129/133/129 31/132/31 42/143/42 134/142/134
f 137/148/137 126/128/126 123/125/123 125/127/125
f 114/114/114 110/110/110 138/149/138 139/150/139
f 139/150/139 138/149/138 140/151/140 141/152/141
f 141/152/141 140/151/140 126/128/126 137/148/137
f 127/129/127 126/128/126 140/151/140 142/153/142
f 142/153/142 140/151/140 138/149/138 143/154/143
f 109/109/109 104/104/104 103/103/103 143/154/143
f 110/110/110 109/109/109 143/154/143 138/149/138
f 107/107/107 142/153/142 143/154/143 103/103/103
f 113/113/113 127/129/127 142/153/142 107/107/107
f 136/147/136 45/146/45 40/141/40 133/140/133
f 105/105/105 104/104/104 109/109/109 108/108/108
f 117/117/117 127/129/127 113/113/113 118/118/118
f 130/135/130 34/134/34 55/155/55 144/156/144
f 144/156/144 55/155/55 38/137/38 131/136/131
f 145/157/145 146/158/146 147/159/147 148/160/148
f 149/161/149 145/157/145 148/160/148 150/162/150
f 151/163/151 152/164/152 153/165/153 154/166/154
f 155/167/155 149/161/149 150/162/150 156/168/156
f 114/114/114 153/165/153 152/164/152 115/115/115
f 157/169/157 158/170/158 159/171/159 160/172/160
f 161/173/161 162/174/162 74/175/74 73/176/73
f 160/172/160 163/177/163 164/178/164 157/169/157
f 165/179/165 164/178/164 163/177/163 125/127/125
f 163/177/163 160/172/160 166/180/166 167/181/167
f 158/170/158 155/167/155 156/168/156 159/171/159
f 168/182/168 169/183/169 83/184/83 82/185/82
f 162/174/162 170/186/170 85/187/85 74/175/74
f 171/188/171 132/139/132 37/138/37 88/189/88
f 172/190/172 168/182/168 82/185/82 90/191/90
f 173/192/173 161/173/161 73/176/73 92/193/92
f 135/144/135 174/194/174 93/195/93 46/145/46
f 169/183/169 173/192/173 92/193/92 83/184/83
f 137/148/137 125/127/125 163/177/163 167/181/167
f 114/114/114 139/150/139 175/196/175 153/165/153
f 139/150/139 141/152/141 176/197/176 175/196/175
f 141/152/141 137/148/137 167/181/167 176/197/176
f 166/180/166 177/198/177 176/197/176 167/181/167
f 177/198/177 178/199/178 175/196/175 176/197/176
f 154/166/154 178/199/178 148/160/148 147/159/147
f 153/165/153 175/196/175 178/199/178 154/166/154
f 150/162/150 148/160/148 178/199/178 177/198/177
f 156/168/156 150/162/150 177/198/177 166/180/166
f 174/194/174 172/190/172 90/191/90 93/195/93
f 146/158/146 151/163/151 154/166/154 147/159/147
f 160/172/160 159/171/159 156/168/156 166/180/166
f 170/186/170 179/200/179 99/201/99 85/187/85
f 179/200/179 171/188/171 88/189/88 99/201/99
f 125/127/125 124/126/124 180/202/180 165/179/165
f 164/178/164 165/179/165 171/188/171 179/200/179
f 157/169/157 164/178/164 179/200/179 170/186/170
f 152/164/152 151/163/151 172/190/172 174/194/174
f 145/157/145 149/161/149 173/192/173 169/183/169
f 115/115/115 152/164/152 174/194/174 135/144/135
f 149/161/149 155/167/155 161/173/161 173/192/173
f 151/163/151 146/158/146 168/182/168 172/190/172
f 165/179/165 180/202/180 132/139/132 171/188/171
f 158/170/158 157/169/157 170/186/170 162/174/162
f 146/158/146 145/157/145 169/183/169 168/182/168
f 155/167/155 158/170/158 162/174/162 161/173/161
f 122/124/122 144/156/144 131/136/131 124/126/124
f 116/116/116 130/135/130 144/156/144 122/124/122
f 111/111/111 136/147/136 133/140/133 108/108/108
f 102/102/102 129/133/129 134/142/134 106/106/106
f 115/115/115 135/144/135 136/147/136 111/111/111
f 106/106/106 134/142/134 120/120/120 112/112/112
f 108/108/108 133/140/133 128/130/128 105/105/105
f 124/126/124 131/136/131 132/139/132 180/202/180
f 119/119/119 121/123/121 130/135/130 116/116/116
f 105/105/105 128/130/128 129/133/129 102/102/102
f 112/112/112 120/120/120 121/123/121 119/119/119
